<svg width="24" height="24" viewBox="0 0 24 24" fill="none" xmlns="http://www.w3.org/2000/svg">
<path fill-rule="evenodd" clip-rule="evenodd" d="M5.14252 4.4855C5.32324 4.1843 5.64875 4 6.00001 4H18C18.3513 4 18.6768 4.1843 18.8575 4.4855L21.8575 9.4855C22.083 9.86132 22.0375 10.3402 21.7453 10.6668L13.2453 20.1668C13.2352 20.178 13.2249 20.1891 13.2143 20.1999C13.056 20.3614 12.8671 20.4897 12.6586 20.5774C12.4501 20.665 12.2262 20.7101 12 20.7101C11.7738 20.7101 11.55 20.665 11.3414 20.5774C11.1329 20.4897 10.944 20.3614 10.7857 20.1999C10.7752 20.1891 10.7648 20.178 10.7548 20.1668L2.25477 10.6668C1.96253 10.3402 1.91703 9.86132 2.14252 9.4855L5.14252 4.4855ZM6.5662 6L4.23671 9.88248L12 18.5591L19.7633 9.88248L17.4338 6H6.5662Z" fill="black"/>
<path fill-rule="evenodd" clip-rule="evenodd" d="M9.11451 7.94251C9.58809 8.22666 9.74165 8.84092 9.4575 9.3145L9.23986 9.67723L10.74 11.3273C11.1115 11.736 11.0813 12.3684 10.6727 12.7399C10.264 13.1114 9.63158 13.0813 9.26007 12.6727L7.26007 10.4727C6.96329 10.1462 6.91552 9.66383 7.14252 9.2855L7.74252 8.2855C8.02667 7.81192 8.64093 7.65836 9.11451 7.94251Z" fill="black"/>
</svg>
