<svg width="52" height="52" viewBox="0 0 52 52" fill="none" xmlns="http://www.w3.org/2000/svg">
<path d="M34.9957 7.86782L33.5841 9.57909L26.0019 0L18.4168 9.58265L17.0043 7.87157L1.7921 21.8584L26 52L50.2079 21.8603L34.9957 7.86782ZM26.0158 22.9813L25.9981 22.9608L26.0018 22.957L26.0158 22.9813ZM13.2796 21.8584H17.0043L25.9981 33.0661L34.9957 21.8584H38.7204L26.0002 37.7038L13.2796 21.8584Z" fill="#8425FF"/>
<path d="M34.9957 7.86782L26.0019 18.7716L17.0043 7.87157L1.7921 21.8584L26 52L50.2079 21.8603L34.9957 7.86782ZM26.0019 22.957L26.0158 22.9813L25.9982 22.9608L26.0019 22.957ZM26.0002 37.7038L13.2796 21.8584H17.0043L25.9981 33.0661L34.9957 21.8584H38.7204L26.0002 37.7038Z" fill="url(#paint0_linear_109_26556)"/>
<path d="M34.9957 7.86782L26.0019 18.7716L17.0043 7.87157V21.8584L25.9981 33.0736L34.9957 21.8584H38.7204L26.0002 37.7038L26 52L50.2079 21.8603L34.9957 7.86782ZM26.0015 22.9647L26.0018 22.9644V22.9569L26.0158 22.9813L26.0015 22.9647Z" fill="url(#paint1_linear_109_26556)"/>
<path d="M26.0019 0L18.4168 9.58264L26.0019 18.7716L33.5842 9.5791L26.0019 0Z" fill="url(#paint2_linear_109_26556)"/>
<path d="M33.5841 9.5791L26.0019 0V18.7716L25.9981 33.0624L34.9957 21.8584V7.86782L33.5841 9.5791Z" fill="url(#paint3_linear_109_26556)"/>
<defs>
<linearGradient id="paint0_linear_109_26556" x1="26" y1="42.5865" x2="26" y2="-5.40942" gradientUnits="userSpaceOnUse">
<stop stop-color="white" stop-opacity="0"/>
<stop offset="1" stop-color="white" stop-opacity="0.8"/>
</linearGradient>
<linearGradient id="paint1_linear_109_26556" x1="5.9738" y1="29.9339" x2="47.5193" y2="29.9339" gradientUnits="userSpaceOnUse">
<stop stop-color="white" stop-opacity="0"/>
<stop offset="1" stop-color="white" stop-opacity="0.6"/>
</linearGradient>
<linearGradient id="paint2_linear_109_26556" x1="26.0005" y1="-3.62925" x2="26.0005" y2="16.8698" gradientUnits="userSpaceOnUse">
<stop stop-color="white" stop-opacity="0.6"/>
<stop offset="1" stop-color="white" stop-opacity="0.2"/>
</linearGradient>
<linearGradient id="paint3_linear_109_26556" x1="30.4969" y1="35.3038" x2="30.4969" y2="7.26468" gradientUnits="userSpaceOnUse">
<stop stop-color="white" stop-opacity="0.6"/>
<stop offset="1" stop-color="white" stop-opacity="0.2"/>
</linearGradient>
</defs>
</svg>
