<svg width="154" height="52" viewBox="0 0 154 52" fill="none" xmlns="http://www.w3.org/2000/svg">
<path d="M35.2036 7.86782L33.792 9.57909L26.2098 0L18.6247 9.58265L17.2122 7.87157L2 21.8584L26.2079 52L50.4158 21.8603L35.2036 7.86782ZM26.2237 22.9813L26.206 22.9608L26.2097 22.957L26.2237 22.9813ZM13.4875 21.8584H17.2122L26.206 33.0661L35.2036 21.8584H38.9283L26.2081 37.7038L13.4875 21.8584Z" fill="#8425FF"/>
<path d="M35.2036 7.86782L26.2098 18.7716L17.2122 7.87157L2 21.8584L26.2079 52L50.4158 21.8603L35.2036 7.86782ZM26.2098 22.957L26.2237 22.9813L26.2061 22.9608L26.2098 22.957ZM26.2081 37.7038L13.4875 21.8584H17.2122L26.206 33.0661L35.2036 21.8584H38.9283L26.2081 37.7038Z" fill="url(#paint0_linear_55_100060)"/>
<path d="M35.2036 7.86782L26.2098 18.7716L17.2122 7.87157V21.8584L26.206 33.0736L35.2036 21.8584H38.9283L26.2081 37.7038L26.2079 52L50.4158 21.8603L35.2036 7.86782ZM26.2094 22.9647L26.2098 22.9644V22.9569L26.2237 22.9813L26.2094 22.9647Z" fill="url(#paint1_linear_55_100060)"/>
<path d="M26.2098 0L18.6247 9.58264L26.2098 18.7716L33.7921 9.5791L26.2098 0Z" fill="url(#paint2_linear_55_100060)"/>
<path d="M33.792 9.5791L26.2098 0V18.7716L26.206 33.0624L35.2036 21.8584V7.86782L33.792 9.5791Z" fill="url(#paint3_linear_55_100060)"/>
<path d="M118.195 41.4961C118.195 41.2539 118.125 41.0352 117.984 40.8398C117.844 40.6445 117.582 40.4648 117.199 40.3008C116.824 40.1289 116.281 39.9727 115.57 39.832C114.711 39.6445 113.941 39.3906 113.262 39.0703C112.582 38.75 112.047 38.3398 111.656 37.8398C111.266 37.3398 111.07 36.7266 111.07 36C111.07 35.2969 111.27 34.6484 111.668 34.0547C112.074 33.4609 112.656 32.9844 113.414 32.625C114.172 32.2656 115.078 32.0859 116.133 32.0859C117.234 32.0859 118.18 32.2617 118.969 32.6133C119.766 32.9648 120.375 33.4492 120.797 34.0664C121.227 34.6758 121.441 35.3711 121.441 36.1523H118.066C118.066 35.6602 117.91 35.25 117.598 34.9219C117.285 34.5859 116.793 34.418 116.121 34.418C115.746 34.418 115.422 34.4844 115.148 34.6172C114.875 34.7422 114.664 34.9141 114.516 35.1328C114.375 35.3438 114.305 35.5781 114.305 35.8359C114.305 36.0938 114.379 36.3203 114.527 36.5156C114.684 36.7031 114.934 36.8711 115.277 37.0195C115.621 37.1602 116.09 37.2891 116.684 37.4062C117.598 37.5938 118.414 37.8398 119.133 38.1445C119.852 38.4414 120.422 38.8477 120.844 39.3633C121.266 39.8711 121.477 40.5391 121.477 41.3672C121.477 42.1094 121.258 42.7734 120.82 43.3594C120.383 43.9453 119.766 44.4062 118.969 44.7422C118.172 45.0703 117.23 45.2344 116.145 45.2344C114.965 45.2344 113.965 45.0234 113.145 44.6016C112.332 44.1797 111.715 43.6445 111.293 42.9961C110.879 42.3398 110.672 41.668 110.672 40.9805H113.871C113.887 41.4414 114.004 41.8125 114.223 42.0938C114.449 42.375 114.734 42.5781 115.078 42.7031C115.43 42.8281 115.809 42.8906 116.215 42.8906C116.652 42.8906 117.016 42.832 117.305 42.7148C117.594 42.5898 117.812 42.4258 117.961 42.2227C118.117 42.0117 118.195 41.7695 118.195 41.4961Z" fill="#222222"/>
<path d="M93.9258 34.9453V45H90.5391V32.3203H93.7148L93.9258 34.9453ZM93.457 38.2148H92.5195C92.5195 37.0352 92.707 35.9844 93.082 35.0625C93.4648 34.1406 94.0234 33.4141 94.7578 32.8828C95.4922 32.3516 96.4023 32.0859 97.4883 32.0859C98.6211 32.0859 99.543 32.4336 100.254 33.1289C100.965 33.8164 101.32 34.9531 101.32 36.5391V45H97.9453V36.9141C97.9453 36.3359 97.8672 35.8906 97.7109 35.5781C97.5547 35.2656 97.332 35.0469 97.043 34.9219C96.7617 34.7969 96.4219 34.7344 96.0234 34.7344C95.5859 34.7344 95.2031 34.8242 94.875 35.0039C94.5547 35.1836 94.2891 35.4336 94.0781 35.7539C93.8672 36.0664 93.7109 36.4336 93.6094 36.8555C93.5078 37.2773 93.457 37.7305 93.457 38.2148ZM101.004 37.8281L99.7969 37.9805C99.7969 36.8789 99.9805 35.8828 100.348 34.9922C100.715 34.1016 101.258 33.3945 101.977 32.8711C102.703 32.3477 103.602 32.0859 104.672 32.0859C105.492 32.0859 106.203 32.2461 106.805 32.5664C107.414 32.8789 107.887 33.3867 108.223 34.0898C108.559 34.793 108.727 35.7305 108.727 36.9023V45H105.34V36.9023C105.34 36.3164 105.262 35.8711 105.105 35.5664C104.957 35.2539 104.738 35.0391 104.449 34.9219C104.168 34.7969 103.832 34.7344 103.441 34.7344C103.035 34.7344 102.68 34.8164 102.375 34.9805C102.07 35.1367 101.816 35.3555 101.613 35.6367C101.41 35.918 101.258 36.2461 101.156 36.6211C101.055 36.9883 101.004 37.3906 101.004 37.8281Z" fill="#222222"/>
<path d="M83.4258 45.2344C82.1133 45.2344 80.9844 44.9609 80.0391 44.4141C79.0938 43.8594 78.3672 43.1172 77.8594 42.1875C77.3594 41.2578 77.1094 40.2266 77.1094 39.0938V38.625C77.1094 37.3438 77.3477 36.2148 77.8242 35.2383C78.3008 34.2539 78.9844 33.4844 79.875 32.9297C80.7656 32.3672 81.8242 32.0859 83.0508 32.0859C84.2539 32.0859 85.2695 32.3477 86.0977 32.8711C86.9258 33.3867 87.5547 34.1094 87.9844 35.0391C88.4141 35.9688 88.6289 37.0547 88.6289 38.2969V39.7031H78.5508V37.4531H85.3125V37.1953C85.3125 36.7266 85.2266 36.3086 85.0547 35.9414C84.8906 35.5664 84.6406 35.2695 84.3047 35.0508C83.9688 34.832 83.5391 34.7227 83.0156 34.7227C82.4219 34.7227 81.9375 34.8906 81.5625 35.2266C81.1875 35.5625 80.9141 36.0273 80.7422 36.6211C80.5781 37.207 80.4961 37.875 80.4961 38.625V39.0938C80.4961 39.7734 80.6211 40.3789 80.8711 40.9102C81.1211 41.4336 81.4805 41.8477 81.9492 42.1523C82.418 42.4492 82.9805 42.5977 83.6367 42.5977C84.2461 42.5977 84.8125 42.4805 85.3359 42.2461C85.8672 42.0039 86.3242 41.6406 86.707 41.1562L88.3477 42.9375C87.9492 43.5156 87.3359 44.043 86.5078 44.5195C85.6797 44.9961 84.6523 45.2344 83.4258 45.2344Z" fill="#222222"/>
<path d="M74.9648 36.082V42.8438C74.6992 43.1641 74.2891 43.5117 73.7344 43.8867C73.1797 44.2539 72.4648 44.5703 71.5898 44.8359C70.7148 45.1016 69.6562 45.2344 68.4141 45.2344C66.9453 45.2344 65.6562 44.9141 64.5469 44.2734C63.4375 43.625 62.5742 42.6875 61.957 41.4609C61.3398 40.2344 61.0312 38.75 61.0312 37.0078V35.9414C61.0312 34.1914 61.3281 32.7031 61.9219 31.4766C62.5156 30.25 63.3477 29.3125 64.418 28.6641C65.4961 28.0156 66.75 27.6914 68.1797 27.6914C69.6641 27.6914 70.8828 27.9336 71.8359 28.418C72.7891 28.8945 73.5156 29.5586 74.0156 30.4102C74.5234 31.2539 74.8359 32.2227 74.9531 33.3164H71.543C71.457 32.7383 71.293 32.2344 71.0508 31.8047C70.8086 31.375 70.4609 31.0391 70.0078 30.7969C69.5625 30.5547 68.9844 30.4336 68.2734 30.4336C67.4922 30.4336 66.8281 30.6445 66.2812 31.0664C65.7344 31.4805 65.3164 32.0938 65.0273 32.9062C64.7383 33.7188 64.5938 34.7227 64.5938 35.918V37.0078C64.5938 38.1953 64.7461 39.1992 65.0508 40.0195C65.3555 40.832 65.8047 41.4492 66.3984 41.8711C67 42.2852 67.7422 42.4922 68.625 42.4922C69.1797 42.4922 69.6406 42.4453 70.0078 42.3516C70.3828 42.2578 70.6836 42.1445 70.9102 42.0117C71.1445 41.8711 71.3242 41.7383 71.4492 41.6133V38.5898H68.2383V36.082H74.9648Z" fill="#222222"/>
<path d="M109.266 20.2344V5H112.664V23H109.605L109.266 20.2344ZM101.25 16.8125V16.5664C101.25 15.2773 101.441 14.1484 101.824 13.1797C102.207 12.2031 102.77 11.4453 103.512 10.9062C104.254 10.3594 105.152 10.0859 106.207 10.0859C107.199 10.0859 108.027 10.3633 108.691 10.918C109.355 11.4648 109.879 12.2188 110.262 13.1797C110.652 14.1328 110.922 15.2266 111.07 16.4609V17C110.922 18.1719 110.652 19.2305 110.262 20.1758C109.879 21.1133 109.352 21.8594 108.68 22.4141C108.016 22.9609 107.184 23.2344 106.184 23.2344C105.137 23.2344 104.242 22.957 103.5 22.4023C102.766 21.8398 102.207 21.0742 101.824 20.1055C101.441 19.1367 101.25 18.0391 101.25 16.8125ZM104.625 16.5664V16.8125C104.625 17.5078 104.703 18.1445 104.859 18.7227C105.016 19.293 105.27 19.7461 105.621 20.082C105.973 20.4102 106.445 20.5742 107.039 20.5742C107.617 20.5742 108.094 20.4453 108.469 20.1875C108.844 19.9219 109.129 19.5586 109.324 19.0977C109.527 18.6367 109.645 18.1055 109.676 17.5039V15.9688C109.652 15.4766 109.582 15.0352 109.465 14.6445C109.355 14.2461 109.191 13.9062 108.973 13.625C108.762 13.3438 108.496 13.125 108.176 12.9688C107.863 12.8125 107.492 12.7344 107.062 12.7344C106.477 12.7344 106.004 12.9062 105.645 13.25C105.293 13.5859 105.035 14.043 104.871 14.6211C104.707 15.1992 104.625 15.8477 104.625 16.5664Z" fill="#222222"/>
<path d="M98.9883 10.3203V23H95.6016V10.3203H98.9883ZM95.3906 7.01562C95.3906 6.52344 95.5625 6.11719 95.9062 5.79688C96.25 5.47656 96.7109 5.31641 97.2891 5.31641C97.8594 5.31641 98.3164 5.47656 98.6602 5.79688C99.0117 6.11719 99.1875 6.52344 99.1875 7.01562C99.1875 7.50781 99.0117 7.91406 98.6602 8.23438C98.3164 8.55469 97.8594 8.71484 97.2891 8.71484C96.7109 8.71484 96.25 8.55469 95.9062 8.23438C95.5625 7.91406 95.3906 7.50781 95.3906 7.01562Z" fill="#222222"/>
<path d="M87.5742 20.5391L90.3867 10.3203H93.9141L89.6367 23H87.5039L87.5742 20.5391ZM85.6406 10.3203L88.4648 20.5508L88.5234 23H86.3789L82.1016 10.3203H85.6406Z" fill="#222222"/>
<path d="M80.4727 10.3203V23H77.0859V10.3203H80.4727ZM76.875 7.01562C76.875 6.52344 77.0469 6.11719 77.3906 5.79688C77.7344 5.47656 78.1953 5.31641 78.7734 5.31641C79.3438 5.31641 79.8008 5.47656 80.1445 5.79688C80.4961 6.11719 80.6719 6.52344 80.6719 7.01562C80.6719 7.50781 80.4961 7.91406 80.1445 8.23438C79.8008 8.55469 79.3438 8.71484 78.7734 8.71484C78.1953 8.71484 77.7344 8.55469 77.3906 8.23438C77.0469 7.91406 76.875 7.50781 76.875 7.01562Z" fill="#222222"/>
<path d="M67.5938 19.4375L71.6133 5.9375H75.5273L69.5859 23H67.0078L67.5938 19.4375ZM63.8906 5.9375L67.8984 19.4375L68.5078 23H65.9062L60 5.9375H63.8906Z" fill="#222222"/>
<defs>
<linearGradient id="paint0_linear_55_100060" x1="26.2079" y1="42.5865" x2="26.2079" y2="-5.40942" gradientUnits="userSpaceOnUse">
<stop stop-color="white" stop-opacity="0"/>
<stop offset="1" stop-color="white" stop-opacity="0.8"/>
</linearGradient>
<linearGradient id="paint1_linear_55_100060" x1="6.1817" y1="29.9339" x2="47.7272" y2="29.9339" gradientUnits="userSpaceOnUse">
<stop stop-color="white" stop-opacity="0"/>
<stop offset="1" stop-color="white" stop-opacity="0.6"/>
</linearGradient>
<linearGradient id="paint2_linear_55_100060" x1="26.2084" y1="-3.62925" x2="26.2084" y2="16.8698" gradientUnits="userSpaceOnUse">
<stop stop-color="white" stop-opacity="0.6"/>
<stop offset="1" stop-color="white" stop-opacity="0.2"/>
</linearGradient>
<linearGradient id="paint3_linear_55_100060" x1="30.7048" y1="35.3038" x2="30.7048" y2="7.26468" gradientUnits="userSpaceOnUse">
<stop stop-color="white" stop-opacity="0.6"/>
<stop offset="1" stop-color="white" stop-opacity="0.2"/>
</linearGradient>
</defs>
</svg>
