<svg width="24" height="24" viewBox="0 0 24 24" fill="none" xmlns="http://www.w3.org/2000/svg">
<path fill-rule="evenodd" clip-rule="evenodd" d="M3.87868 16.8787C4.44129 16.3161 5.20435 16 6 16C6.79565 16 7.55871 16.3161 8.12132 16.8787C8.68393 17.4413 9 18.2043 9 19C9 19.7957 8.68393 20.5587 8.12132 21.1213C7.55871 21.6839 6.79565 22 6 22C5.20435 22 4.44129 21.6839 3.87868 21.1213C3.31607 20.5587 3 19.7957 3 19C3 18.2043 3.31607 17.4413 3.87868 16.8787ZM6 18C5.73478 18 5.48043 18.1054 5.29289 18.2929C5.10536 18.4804 5 18.7348 5 19C5 19.2652 5.10536 19.5196 5.29289 19.7071C5.48043 19.8946 5.73478 20 6 20C6.26522 20 6.51957 19.8946 6.70711 19.7071C6.89464 19.5196 7 19.2652 7 19C7 18.7348 6.89464 18.4804 6.70711 18.2929C6.51957 18.1054 6.26522 18 6 18Z" fill="black"/>
<path fill-rule="evenodd" clip-rule="evenodd" d="M14.8787 16.8787C15.4413 16.3161 16.2043 16 17 16C17.7957 16 18.5587 16.3161 19.1213 16.8787C19.6839 17.4413 20 18.2043 20 19C20 19.7957 19.6839 20.5587 19.1213 21.1213C18.5587 21.6839 17.7957 22 17 22C16.2043 22 15.4413 21.6839 14.8787 21.1213C14.3161 20.5587 14 19.7957 14 19C14 18.2043 14.3161 17.4413 14.8787 16.8787ZM17 18C16.7348 18 16.4804 18.1054 16.2929 18.2929C16.1054 18.4804 16 18.7348 16 19C16 19.2652 16.1054 19.5196 16.2929 19.7071C16.4804 19.8946 16.7348 20 17 20C17.2652 20 17.5196 19.8946 17.7071 19.7071C17.8946 19.5196 18 19.2652 18 19C18 18.7348 17.8946 18.4804 17.7071 18.2929C17.5196 18.1054 17.2652 18 17 18Z" fill="black"/>
<path fill-rule="evenodd" clip-rule="evenodd" d="M3 3C3 2.44772 3.44772 2 4 2H6C6.55228 2 7 2.44772 7 3V16H17C17.5523 16 18 16.4477 18 17C18 17.5523 17.5523 18 17 18H6C5.44772 18 5 17.5523 5 17V4H4C3.44772 4 3 3.55228 3 3Z" fill="black"/>
<path fill-rule="evenodd" clip-rule="evenodd" d="M5.00254 4.92875C5.04189 4.37787 5.52037 3.96319 6.07125 4.00254L20.0712 5.00254C20.348 5.02231 20.6041 5.15618 20.7783 5.37214C20.9525 5.58811 21.0292 5.86674 20.9899 6.14142L19.9899 13.1414C19.9196 13.6341 19.4977 14 19 14H6C5.44772 14 5 13.5523 5 13C5 12.4477 5.44772 12 6 12H18.1327L18.8583 6.921L5.92875 5.99746C5.37787 5.95811 4.96319 5.47963 5.00254 4.92875Z" fill="black"/>
</svg>
